<mxfile host="app.diagrams.net" modified="2024-06-14T15:02:04.056Z" agent="Mozilla/5.0 (Windows NT 10.0; Win64; x64) AppleWebKit/537.36 (KHTML, like Gecko) Chrome/125.0.0.0 Safari/537.36" etag="3wReZDPQH1UvxNuM_Goq" version="24.5.4" type="github">
  <diagram name="Page-1" id="e7e014a7-5840-1c2e-5031-d8a46d1fe8dd">
    <mxGraphModel dx="880" dy="426" grid="1" gridSize="10" guides="1" tooltips="1" connect="1" arrows="1" fold="1" page="1" pageScale="1" pageWidth="1169" pageHeight="826" background="none" math="0" shadow="0">
      <root>
        <mxCell id="0" />
        <mxCell id="1" parent="0" />
        <mxCell id="ftMPsAQ80W7f7WQIOesI-47" value="" style="rounded=0;whiteSpace=wrap;html=1;" vertex="1" parent="1">
          <mxGeometry x="40" y="120" width="840" height="400" as="geometry" />
        </mxCell>
        <mxCell id="ftMPsAQ80W7f7WQIOesI-49" value="" style="shape=internalStorage;whiteSpace=wrap;html=1;backgroundOutline=1;dx=370;dy=40;" vertex="1" parent="1">
          <mxGeometry x="70" y="170" width="780" height="330" as="geometry" />
        </mxCell>
      </root>
    </mxGraphModel>
  </diagram>
</mxfile>
